<svg xmlns="http://www.w3.org/2000/svg" width="640" height="900" viewBox="0 0 640 900">
  <defs>
    <linearGradient id="bg" x1="0" y1="0" x2="1" y2="1">
      <stop offset="0" stop-color="#f6f1e6"/>
      <stop offset="1" stop-color="#f2eadc"/>
    </linearGradient>
    <linearGradient id="ink" x1="0" y1="0" x2="1" y2="0">
      <stop offset="0" stop-color="#171412" stop-opacity="0.14"/>
      <stop offset="1" stop-color="#171412" stop-opacity="0.06"/>
    </linearGradient>
  </defs>
  <rect x="0" y="0" width="640" height="900" rx="28" fill="url(#bg)"/>
  <rect x="38" y="40" width="564" height="820" rx="22" fill="#ffffff" fill-opacity="0.55" stroke="#171412" stroke-opacity="0.14"/>
  <rect x="74" y="110" width="492" height="16" rx="8" fill="url(#ink)"/>
  <rect x="74" y="146" width="420" height="12" rx="6" fill="#171412" fill-opacity="0.10"/>
  <rect x="74" y="178" width="460" height="12" rx="6" fill="#171412" fill-opacity="0.08"/>
  <g transform="translate(0,18)">
    <rect x="74" y="270" width="492" height="12" rx="6" fill="#171412" fill-opacity="0.08"/>
    <rect x="74" y="296" width="470" height="12" rx="6" fill="#171412" fill-opacity="0.07"/>
    <rect x="74" y="322" width="450" height="12" rx="6" fill="#171412" fill-opacity="0.06"/>
    <rect x="74" y="348" width="430" height="12" rx="6" fill="#171412" fill-opacity="0.05"/>
  </g>
  <g transform="translate(0,26)">
    <path d="M170 664c0-18 14-32 32-32h236c18 0 32 14 32 32v106c0 18-14 32-32 32H202c-18 0-32-14-32-32V664z"
          fill="#171412" fill-opacity="0.06" stroke="#171412" stroke-opacity="0.10"/>
    <path d="M214 676h148c9 0 16 7 16 16v58c0 9-7 16-16 16H214c-9 0-16-7-16-16v-58c0-9 7-16 16-16z"
          fill="#c9822b" fill-opacity="0.18" stroke="#c9822b" stroke-opacity="0.22"/>
    <path d="M264 692h48c4 0 7 3 7 7v34c0 4-3 7-7 7h-48c-4 0-7-3-7-7v-34c0-4 3-7 7-7z"
          fill="#171412" fill-opacity="0.10"/>
  </g>
  <text x="320" y="846" text-anchor="middle" font-family="Georgia, 'Times New Roman', Times, serif" font-size="18" fill="#171412" fill-opacity="0.48">
    Обложка отсутствует
  </text>
</svg>

